<?xml version="1.0" standalone="no"?>
<!DOCTYPE svg PUBLIC "-//W3C//DTD SVG 20010904//EN"
 "http://www.w3.org/TR/2001/REC-SVG-20010904/DTD/svg10.dtd">
<svg version="1.0" xmlns="http://www.w3.org/2000/svg"
 width="128.000000pt" height="128.000000pt" viewBox="0 0 128.000000 128.000000"
 preserveAspectRatio="xMidYMid meet">
<metadata>
Created by potrace 1.11, written by Peter Selinger 2001-2013
</metadata>
<g transform="translate(0.000000,128.000000) scale(0.100000,-0.100000)"
fill="#000000" stroke="none">
<path d="M0 640 l0 -640 640 0 640 0 0 640 0 640 -640 0 -640 0 0 -640z m837
510 c14 -11 20 -20 14 -20 -7 0 -19 -7 -27 -15 -14 -13 -18 -13 -39 3 l-24 17
22 17 c27 22 24 22 54 -2z m-144 -112 c-14 -15 -16 -15 -31 0 -15 15 -15 19
-2 32 13 13 17 13 31 0 14 -13 14 -17 2 -32z m309 -91 c7 -7 24 -18 38 -24 22
-10 23 -12 5 -13 -26 -1 -47 -19 -62 -50 -6 -14 -12 -19 -12 -13 -1 22 -44 63
-65 64 -17 0 -14 4 11 16 18 9 38 29 45 45 12 26 13 26 20 7 4 -11 13 -26 20
-32z m-412 -4 c-93 -72 -150 -163 -170 -271 -37 -207 130 -438 333 -458 106
-11 106 -11 46 -51 -29 -20 -80 -45 -112 -55 -73 -23 -195 -24 -267 -2 -114
34 -218 126 -273 242 -30 63 -32 74 -32 182 0 109 2 119 32 182 76 162 225
256 403 257 l75 1 -35 -27z m133 -172 c10 -9 32 -21 50 -28 30 -11 30 -12 7
-12 -30 -2 -63 -26 -80 -61 l-13 -25 -11 25 c-15 34 -46 59 -76 60 -22 1 -21
3 10 14 19 7 44 26 55 44 17 27 21 29 30 15 6 -9 18 -23 28 -32z"/>
</g>
</svg>
